<svg xmlns="http://www.w3.org/2000/svg" width="34" height="31" viewBox="0 0 34 31" fill="none">
<path d="M33.618 9.854V2.26019C33.6173 1.93377 33.5353 1.6126 33.3793 1.32539C33.2232 1.03818 32.998 0.793878 32.7237 0.614322C32.4495 0.434766 32.1348 0.325553 31.8077 0.296445C31.4806 0.267337 31.1513 0.319241 30.8493 0.447518L12.3858 8.34633L2.78966 4.24615C2.48768 4.11788 2.15842 4.06597 1.83133 4.09508C1.50424 4.12419 1.1895 4.2334 0.915243 4.41296C0.640991 4.59251 0.415775 4.83682 0.259725 5.12403C0.103675 5.41124 0.0216558 5.73241 0.0209986 6.05883V24.9827C0.020479 25.3094 0.101796 25.6312 0.257618 25.9189C0.41344 26.2066 0.638865 26.4513 0.913562 26.6308C1.18826 26.8103 1.50359 26.919 1.83111 26.9471C2.15864 26.9753 2.48805 26.9219 2.78966 26.7919L12.3719 22.6952L30.8528 30.5905C31.1547 30.7197 31.4842 30.7723 31.8117 30.7436C32.1391 30.7149 32.4543 30.6058 32.7288 30.4261C33.0033 30.2464 33.2286 30.0016 33.3844 29.714C33.5402 29.4263 33.6217 29.1046 33.6215 28.7779V21.1841V9.854H33.618ZM31.1248 1.08525C31.3206 1.00141 31.5342 0.967239 31.7466 0.985793C31.9589 1.00435 32.1633 1.07505 32.3414 1.19154C32.5194 1.30804 32.6656 1.46668 32.7667 1.65321C32.8678 1.83974 32.9207 2.04831 32.9206 2.26019V8.35326C32.8573 8.30089 32.7909 8.25228 32.7218 8.20769C32.4454 8.02655 32.1277 7.91694 31.7978 7.88883C31.5372 7.86806 31.2751 7.89989 31.0272 7.9824C30.9665 7.999 30.9071 8.01985 30.8493 8.04479L25.7653 10.2179L14.2548 15.1534L9.00344 12.8971C8.77233 12.7983 8.57541 12.6344 8.43705 12.4256C8.29868 12.2167 8.22494 11.9722 8.22494 11.7221C8.22494 11.4721 8.29868 11.2275 8.43705 11.0187C8.57541 10.8099 8.77233 10.6459 9.00344 10.5472L31.1248 1.08525ZM32.9206 21.1875C32.9217 21.3998 32.8689 21.6089 32.7671 21.7955C32.6654 21.9821 32.5178 22.1401 32.3383 22.255C32.2938 22.2849 32.2472 22.3116 32.1988 22.3347L32.0977 22.3798H32.0523C31.7498 22.4847 31.4186 22.4723 31.1248 22.3451L29.8555 21.801L22.1493 18.5049L24.9389 17.3161C25.0307 17.278 25.1193 17.2328 25.2039 17.1809C25.492 17.006 25.7295 16.7598 25.8933 16.4664C26.0571 16.173 26.1415 15.8424 26.1384 15.5069C26.1386 15.4083 26.1317 15.3099 26.1175 15.2123C26.0705 14.8794 25.937 14.5643 25.7304 14.2982C25.5238 14.032 25.251 13.8239 24.9389 13.6942L22.1493 12.5054L25.5352 11.0567L31.1143 8.66866C31.261 8.60478 31.4182 8.56835 31.5781 8.56121C31.7506 8.55612 31.9224 8.58539 32.0833 8.6473C32.2443 8.7092 32.3912 8.80249 32.5153 8.92166C32.6394 9.04084 32.7383 9.1835 32.8061 9.34123C32.8739 9.49897 32.9093 9.6686 32.9101 9.84013L32.9206 21.1875ZM24.8483 16.5883C24.7858 16.6297 24.7192 16.6645 24.6495 16.6922L21.2706 18.141L15.137 15.5208L21.2706 12.8971L24.653 14.3458C24.8662 14.4371 25.0506 14.5841 25.1866 14.7711C25.3226 14.9581 25.4051 15.1782 25.4255 15.4081C25.4459 15.638 25.4033 15.869 25.3023 16.0768C25.2013 16.2846 25.0456 16.4613 24.8517 16.5883H24.8483ZM12.4172 21.9535L9.02088 20.4978C8.79159 20.3987 8.5964 20.2353 8.45931 20.0275C8.32221 19.8197 8.24917 19.5766 8.24917 19.3281C8.24917 19.0796 8.32221 18.8365 8.45931 18.6287C8.5964 18.4208 8.79159 18.2574 9.02088 18.1583L14.2513 15.9124L20.3884 18.5326L12.4172 21.9535ZM2.52813 26.1542C2.33269 26.2388 2.11911 26.2737 1.90669 26.2557C1.69426 26.2378 1.48969 26.1675 1.31146 26.0512C1.13323 25.9349 0.986947 25.7764 0.885837 25.5898C0.784727 25.4032 0.731972 25.1946 0.73234 24.9827V6.05883C0.73052 5.84683 0.782628 5.63781 0.883823 5.45118C0.985019 5.26456 1.13202 5.10637 1.31118 4.99133C1.5178 4.85408 1.76008 4.77943 2.00857 4.77644C2.1851 4.77633 2.3597 4.81293 2.52116 4.88388L11.5071 8.72411L8.71751 9.90945C8.36163 10.062 8.05848 10.3147 7.84549 10.6366C7.6325 10.9584 7.519 11.3352 7.519 11.7204C7.519 12.1056 7.6325 12.4824 7.84549 12.8042C8.05848 13.126 8.36163 13.3788 8.71751 13.5313L13.3622 15.5208L8.71751 17.5067C8.36163 17.6592 8.05848 17.912 7.84549 18.2338C7.6325 18.5557 7.519 18.9324 7.519 19.3177C7.519 19.7029 7.6325 20.0797 7.84549 20.4015C8.05848 20.7233 8.36163 20.9761 8.71751 21.1286L11.5071 22.3174L2.52813 26.1542ZM32.9206 28.7779C32.9215 28.9901 32.8692 29.1991 32.7684 29.3862C32.6675 29.5732 32.5213 29.7322 32.3429 29.8489C32.1646 29.9656 31.9598 30.0362 31.7471 30.0543C31.5344 30.0725 31.3205 30.0376 31.1248 29.9528L13.2994 22.3278L21.3194 18.9069L29.6394 22.4699L30.8633 22.9933C30.9343 23.0255 31.0078 23.0521 31.083 23.073H31.1388L31.3061 23.1111H31.3759H31.5363H31.6478H31.7176C31.7722 23.1147 31.8269 23.1147 31.8815 23.1111H31.9861L32.15 23.073L32.2476 23.0452C32.3058 23.0281 32.3629 23.0072 32.4185 22.9829L32.4987 22.9482C32.5776 22.9107 32.6544 22.8691 32.7288 22.8234L32.7707 22.7922C32.8252 22.7572 32.8776 22.719 32.9276 22.6779L32.9206 28.7779Z" fill="#082A3A"/>
</svg>